<mxfile host="app.diagrams.net" modified="2023-05-10T13:29:10.200Z" agent="Mozilla/5.0 (Macintosh; Intel Mac OS X 10_15_7) AppleWebKit/537.36 (KHTML, like Gecko) Chrome/113.0.0.0 Safari/537.36" etag="1oKbbV7YxDva8vLq5JUq" version="21.2.9" type="device">
  <diagram id="C5RBs43oDa-KdzZeNtuy" name="Page-1">
    <mxGraphModel dx="954" dy="717" grid="1" gridSize="10" guides="1" tooltips="1" connect="1" arrows="1" fold="1" page="1" pageScale="1" pageWidth="827" pageHeight="1169" math="0" shadow="0">
      <root>
        <mxCell id="WIyWlLk6GJQsqaUBKTNV-0" />
        <mxCell id="WIyWlLk6GJQsqaUBKTNV-1" parent="WIyWlLk6GJQsqaUBKTNV-0" />
        <mxCell id="qLeCFnhMoU0FDl70sIfa-1" style="edgeStyle=orthogonalEdgeStyle;rounded=0;orthogonalLoop=1;jettySize=auto;html=1;" edge="1" parent="WIyWlLk6GJQsqaUBKTNV-1" source="WIyWlLk6GJQsqaUBKTNV-3">
          <mxGeometry relative="1" as="geometry">
            <mxPoint x="220" y="170" as="targetPoint" />
          </mxGeometry>
        </mxCell>
        <mxCell id="WIyWlLk6GJQsqaUBKTNV-3" value="Start training&lt;br&gt;" style="rounded=1;whiteSpace=wrap;html=1;fontSize=12;glass=0;strokeWidth=1;shadow=0;" parent="WIyWlLk6GJQsqaUBKTNV-1" vertex="1">
          <mxGeometry x="160" y="80" width="120" height="40" as="geometry" />
        </mxCell>
        <mxCell id="qLeCFnhMoU0FDl70sIfa-9" style="edgeStyle=orthogonalEdgeStyle;rounded=0;orthogonalLoop=1;jettySize=auto;html=1;entryX=0.5;entryY=0;entryDx=0;entryDy=0;" edge="1" parent="WIyWlLk6GJQsqaUBKTNV-1" source="qLeCFnhMoU0FDl70sIfa-4" target="qLeCFnhMoU0FDl70sIfa-6">
          <mxGeometry relative="1" as="geometry" />
        </mxCell>
        <mxCell id="qLeCFnhMoU0FDl70sIfa-4" value="Initialize Agent 1 and Agent 2" style="rounded=0;whiteSpace=wrap;html=1;" vertex="1" parent="WIyWlLk6GJQsqaUBKTNV-1">
          <mxGeometry x="160" y="170" width="120" height="60" as="geometry" />
        </mxCell>
        <mxCell id="qLeCFnhMoU0FDl70sIfa-7" style="edgeStyle=orthogonalEdgeStyle;rounded=0;orthogonalLoop=1;jettySize=auto;html=1;" edge="1" parent="WIyWlLk6GJQsqaUBKTNV-1" source="qLeCFnhMoU0FDl70sIfa-6">
          <mxGeometry relative="1" as="geometry">
            <mxPoint x="220" y="430" as="targetPoint" />
          </mxGeometry>
        </mxCell>
        <mxCell id="qLeCFnhMoU0FDl70sIfa-6" value="Play 400 games&lt;br&gt;" style="shape=process;whiteSpace=wrap;html=1;backgroundOutline=1;" vertex="1" parent="WIyWlLk6GJQsqaUBKTNV-1">
          <mxGeometry x="160" y="310" width="120" height="60" as="geometry" />
        </mxCell>
        <mxCell id="qLeCFnhMoU0FDl70sIfa-12" style="edgeStyle=orthogonalEdgeStyle;rounded=0;orthogonalLoop=1;jettySize=auto;html=1;" edge="1" parent="WIyWlLk6GJQsqaUBKTNV-1" source="qLeCFnhMoU0FDl70sIfa-11" target="qLeCFnhMoU0FDl70sIfa-13">
          <mxGeometry relative="1" as="geometry">
            <mxPoint x="220" y="540" as="targetPoint" />
          </mxGeometry>
        </mxCell>
        <mxCell id="qLeCFnhMoU0FDl70sIfa-11" value="Update both agents" style="shape=process;whiteSpace=wrap;html=1;backgroundOutline=1;" vertex="1" parent="WIyWlLk6GJQsqaUBKTNV-1">
          <mxGeometry x="160" y="430" width="120" height="60" as="geometry" />
        </mxCell>
        <mxCell id="qLeCFnhMoU0FDl70sIfa-14" style="edgeStyle=orthogonalEdgeStyle;rounded=0;orthogonalLoop=1;jettySize=auto;html=1;" edge="1" parent="WIyWlLk6GJQsqaUBKTNV-1" source="qLeCFnhMoU0FDl70sIfa-13">
          <mxGeometry relative="1" as="geometry">
            <mxPoint x="220" y="630" as="targetPoint" />
          </mxGeometry>
        </mxCell>
        <mxCell id="qLeCFnhMoU0FDl70sIfa-13" value="Save current Agent 2 in a FIFO buffer of 10 different versions" style="rounded=0;whiteSpace=wrap;html=1;" vertex="1" parent="WIyWlLk6GJQsqaUBKTNV-1">
          <mxGeometry x="160" y="525" width="120" height="60" as="geometry" />
        </mxCell>
        <mxCell id="qLeCFnhMoU0FDl70sIfa-17" style="edgeStyle=orthogonalEdgeStyle;rounded=0;orthogonalLoop=1;jettySize=auto;html=1;" edge="1" parent="WIyWlLk6GJQsqaUBKTNV-1" source="qLeCFnhMoU0FDl70sIfa-16">
          <mxGeometry relative="1" as="geometry">
            <mxPoint x="220" y="740" as="targetPoint" />
          </mxGeometry>
        </mxCell>
        <mxCell id="qLeCFnhMoU0FDl70sIfa-16" value="Current Agent 2 go back to one of its previous versions choosed randomly&amp;nbsp;" style="rounded=0;whiteSpace=wrap;html=1;" vertex="1" parent="WIyWlLk6GJQsqaUBKTNV-1">
          <mxGeometry x="160" y="630" width="120" height="60" as="geometry" />
        </mxCell>
        <mxCell id="qLeCFnhMoU0FDl70sIfa-28" style="edgeStyle=orthogonalEdgeStyle;rounded=0;orthogonalLoop=1;jettySize=auto;html=1;" edge="1" parent="WIyWlLk6GJQsqaUBKTNV-1" source="qLeCFnhMoU0FDl70sIfa-20" target="qLeCFnhMoU0FDl70sIfa-29">
          <mxGeometry relative="1" as="geometry">
            <mxPoint x="620" y="910" as="targetPoint" />
          </mxGeometry>
        </mxCell>
        <mxCell id="qLeCFnhMoU0FDl70sIfa-20" value="The winner of the previous fight plays against champion for 400 games" style="shape=process;whiteSpace=wrap;html=1;backgroundOutline=1;" vertex="1" parent="WIyWlLk6GJQsqaUBKTNV-1">
          <mxGeometry x="420" y="875" width="140" height="70" as="geometry" />
        </mxCell>
        <mxCell id="qLeCFnhMoU0FDl70sIfa-26" style="edgeStyle=orthogonalEdgeStyle;rounded=0;orthogonalLoop=1;jettySize=auto;html=1;exitX=1;exitY=0.5;exitDx=0;exitDy=0;entryX=0;entryY=0.5;entryDx=0;entryDy=0;" edge="1" parent="WIyWlLk6GJQsqaUBKTNV-1" source="qLeCFnhMoU0FDl70sIfa-21" target="qLeCFnhMoU0FDl70sIfa-20">
          <mxGeometry relative="1" as="geometry" />
        </mxCell>
        <mxCell id="qLeCFnhMoU0FDl70sIfa-27" value="Yes" style="edgeLabel;html=1;align=center;verticalAlign=middle;resizable=0;points=[];" vertex="1" connectable="0" parent="qLeCFnhMoU0FDl70sIfa-26">
          <mxGeometry x="-0.68" y="3" relative="1" as="geometry">
            <mxPoint x="25" y="-7" as="offset" />
          </mxGeometry>
        </mxCell>
        <mxCell id="qLeCFnhMoU0FDl70sIfa-35" style="edgeStyle=orthogonalEdgeStyle;rounded=0;orthogonalLoop=1;jettySize=auto;html=1;" edge="1" parent="WIyWlLk6GJQsqaUBKTNV-1" source="qLeCFnhMoU0FDl70sIfa-21">
          <mxGeometry relative="1" as="geometry">
            <mxPoint x="220" y="1030" as="targetPoint" />
          </mxGeometry>
        </mxCell>
        <mxCell id="qLeCFnhMoU0FDl70sIfa-36" value="No" style="edgeLabel;html=1;align=center;verticalAlign=middle;resizable=0;points=[];" vertex="1" connectable="0" parent="qLeCFnhMoU0FDl70sIfa-35">
          <mxGeometry x="-0.3004" y="3" relative="1" as="geometry">
            <mxPoint x="7" as="offset" />
          </mxGeometry>
        </mxCell>
        <mxCell id="qLeCFnhMoU0FDl70sIfa-21" value="Champion already &lt;br&gt;initialized ?" style="rhombus;whiteSpace=wrap;html=1;" vertex="1" parent="WIyWlLk6GJQsqaUBKTNV-1">
          <mxGeometry x="145" y="850" width="150" height="120" as="geometry" />
        </mxCell>
        <mxCell id="qLeCFnhMoU0FDl70sIfa-25" style="edgeStyle=orthogonalEdgeStyle;rounded=0;orthogonalLoop=1;jettySize=auto;html=1;entryX=0.5;entryY=0;entryDx=0;entryDy=0;" edge="1" parent="WIyWlLk6GJQsqaUBKTNV-1" source="qLeCFnhMoU0FDl70sIfa-24" target="qLeCFnhMoU0FDl70sIfa-21">
          <mxGeometry relative="1" as="geometry">
            <mxPoint x="220" y="870" as="targetPoint" />
          </mxGeometry>
        </mxCell>
        <mxCell id="qLeCFnhMoU0FDl70sIfa-24" value="Agent 1 fight Agent 2 for 400 games" style="shape=process;whiteSpace=wrap;html=1;backgroundOutline=1;" vertex="1" parent="WIyWlLk6GJQsqaUBKTNV-1">
          <mxGeometry x="160" y="740" width="120" height="60" as="geometry" />
        </mxCell>
        <mxCell id="qLeCFnhMoU0FDl70sIfa-30" value="No" style="edgeStyle=orthogonalEdgeStyle;rounded=0;orthogonalLoop=1;jettySize=auto;html=1;" edge="1" parent="WIyWlLk6GJQsqaUBKTNV-1" source="qLeCFnhMoU0FDl70sIfa-29">
          <mxGeometry x="-0.208" y="10" relative="1" as="geometry">
            <mxPoint x="780" y="910" as="targetPoint" />
            <mxPoint as="offset" />
          </mxGeometry>
        </mxCell>
        <mxCell id="qLeCFnhMoU0FDl70sIfa-32" style="edgeStyle=orthogonalEdgeStyle;rounded=0;orthogonalLoop=1;jettySize=auto;html=1;" edge="1" parent="WIyWlLk6GJQsqaUBKTNV-1" source="qLeCFnhMoU0FDl70sIfa-29">
          <mxGeometry relative="1" as="geometry">
            <mxPoint x="670" y="1020" as="targetPoint" />
          </mxGeometry>
        </mxCell>
        <mxCell id="qLeCFnhMoU0FDl70sIfa-33" value="Yes" style="edgeLabel;html=1;align=center;verticalAlign=middle;resizable=0;points=[];" vertex="1" connectable="0" parent="qLeCFnhMoU0FDl70sIfa-32">
          <mxGeometry x="-0.2289" y="1" relative="1" as="geometry">
            <mxPoint x="19" as="offset" />
          </mxGeometry>
        </mxCell>
        <mxCell id="qLeCFnhMoU0FDl70sIfa-29" value="Champion win ?" style="rhombus;whiteSpace=wrap;html=1;" vertex="1" parent="WIyWlLk6GJQsqaUBKTNV-1">
          <mxGeometry x="610" y="865" width="120" height="90" as="geometry" />
        </mxCell>
        <mxCell id="qLeCFnhMoU0FDl70sIfa-38" style="edgeStyle=orthogonalEdgeStyle;rounded=0;orthogonalLoop=1;jettySize=auto;html=1;" edge="1" parent="WIyWlLk6GJQsqaUBKTNV-1" source="qLeCFnhMoU0FDl70sIfa-31">
          <mxGeometry relative="1" as="geometry">
            <mxPoint x="220" y="1200" as="targetPoint" />
            <Array as="points">
              <mxPoint x="840" y="1040" />
              <mxPoint x="841" y="1040" />
              <mxPoint x="841" y="1200" />
              <mxPoint x="240" y="1200" />
            </Array>
          </mxGeometry>
        </mxCell>
        <mxCell id="qLeCFnhMoU0FDl70sIfa-31" value="The agent become the champion" style="rounded=0;whiteSpace=wrap;html=1;" vertex="1" parent="WIyWlLk6GJQsqaUBKTNV-1">
          <mxGeometry x="780" y="880" width="120" height="60" as="geometry" />
        </mxCell>
        <mxCell id="qLeCFnhMoU0FDl70sIfa-40" style="edgeStyle=orthogonalEdgeStyle;rounded=0;orthogonalLoop=1;jettySize=auto;html=1;" edge="1" parent="WIyWlLk6GJQsqaUBKTNV-1" source="qLeCFnhMoU0FDl70sIfa-34">
          <mxGeometry relative="1" as="geometry">
            <mxPoint x="220" y="1200" as="targetPoint" />
            <Array as="points">
              <mxPoint x="670" y="1200" />
            </Array>
          </mxGeometry>
        </mxCell>
        <mxCell id="qLeCFnhMoU0FDl70sIfa-34" value="The champion remains the champion" style="rounded=0;whiteSpace=wrap;html=1;" vertex="1" parent="WIyWlLk6GJQsqaUBKTNV-1">
          <mxGeometry x="610" y="1020" width="120" height="60" as="geometry" />
        </mxCell>
        <mxCell id="qLeCFnhMoU0FDl70sIfa-39" style="edgeStyle=orthogonalEdgeStyle;rounded=0;orthogonalLoop=1;jettySize=auto;html=1;entryX=0;entryY=0.5;entryDx=0;entryDy=0;" edge="1" parent="WIyWlLk6GJQsqaUBKTNV-1" source="qLeCFnhMoU0FDl70sIfa-37" target="qLeCFnhMoU0FDl70sIfa-6">
          <mxGeometry relative="1" as="geometry">
            <mxPoint x="70" y="340" as="targetPoint" />
            <Array as="points">
              <mxPoint x="221" y="1260" />
              <mxPoint x="60" y="1260" />
              <mxPoint x="60" y="340" />
            </Array>
          </mxGeometry>
        </mxCell>
        <mxCell id="qLeCFnhMoU0FDl70sIfa-37" value="Agent 1 or Agent 2 become the champion (random choice)" style="rounded=0;whiteSpace=wrap;html=1;" vertex="1" parent="WIyWlLk6GJQsqaUBKTNV-1">
          <mxGeometry x="155" y="1030" width="130" height="70" as="geometry" />
        </mxCell>
      </root>
    </mxGraphModel>
  </diagram>
</mxfile>
